<svg aria-hidden="true" style="position:absolute;width:0;height:0;overflow:hidden" xmlns="http://www.w3.org/2000/svg">
  <defs>
    <symbol id="icon-facebook-icon" viewBox="0 0 32 32">
      <path d="M29.3 16a13.4 13.4 0 1 0-16 13.1v-9h-2.6v-4h2.6v-3.4C13.3 10 15.4 8 18 8h3.3v4h-2.6c-.8 0-1.4.6-1.4 1.4V16h4v4h-4v9.3c6.8-.6 12-6.3 12-13.3z"/>
    </symbol>
    <symbol id="icon-instagram-icon" viewBox="0 0 32 32">
      <path d="M21.2 4H9.5c-1.8 0-3.6.7-4.8 2s-2 3-2 4.8v11.7c0 1.8.7 3.6 2 4.8s3 2 4.8 2h11.7a6.8 6.8 0 0 0 6.8-6.8V10.8A6.8 6.8 0 0 0 21.2 4zm-5.9 18.5a5.8 5.8 0 1 1 0-11.7 5.8 5.8 0 0 1 0 11.7zm7.3-11.7a1.5 1.5 0 0 1-1-2.5 1.5 1.5 0 1 1 1 2.5zm-3.4 5.9a3.9 3.9 0 1 1-7.8 0 3.9 3.9 0 0 1 7.8 0z"/>
    </symbol>
    <symbol id="icon-youtube-icon" viewBox="0 0 32 32">
      <path d="m18.2 15.8-3-1.5c-.4-.1-.6 0-.6.3v2.8c0 .3.2.4.5.3l3.1-1.5c.3 0 .3-.3 0-.4zM16 2.7a13.3 13.3 0 1 0 0 26.6 13.3 13.3 0 0 0 0-26.6zm0 18.7c-6.8 0-7-.6-7-5.4s.2-5.4 7-5.4 7 .6 7 5.4-.2 5.4-7 5.4z"/>
    </symbol>
  </defs>
</svg>
